#!OML:ASF I:\golf\golf\golf 2\Subject 1\2002-09-07\Subject1.ASF
:FULLY-SPECIFIED
:DEGREES
380
root 0.305339 17.8438 -3.42457 13.4905 18.3613 -2.69926
lowerback 15.7361 1.28553 3.30819
upperback 5.32704 2.59416 7.2911
thorax -3.34787 1.28813 5.38483
lowerneck -21.436 -7.93712 -2.78921
upperneck 1.12408 -10.1812 4.99293
head 4.05684 -4.74641 1.02226
rclavicle -3.18055e-014 -5.88403e-014
rhumerus -31.4809 -2.9256 -60.2851
rradius 31.0468
rwrist -19.9729
rhand -25.1815 11.4442
rfingers 7.12502
rthumb 1.33626 -18.5314
lclavicle -3.18055e-014 -5.88403e-014
lhumerus -32.359 -34.4863 101.774
lradius 46.744
lwrist -4.49733
lhand -11.4241 26.3684
lfingers 7.12502
lthumb 14.6119 55.8336
rfemur -36.8709 -2.13128 21.9315
rtibia 34.3576
rfoot -7.63193 -4.49972
rtoes 7.98114
lfemur -21.5538 -0.426484 -10.3564
ltibia 36.5426
lfoot -17.1657 -12.2308
ltoes -11.4353
381
root 0.350273 17.8394 -3.4438 13.1188 17.944 -2.79936
lowerback 15.3342 1.22079 3.10817
upperback 5.22351 2.45417 7.28168
thorax -3.24024 1.21865 5.51879
lowerneck -21.8522 -7.79731 -2.86872
upperneck 1.61323 -9.98286 4.97756
head 4.26715 -4.63281 1.02663
rclavicle 5.80451e-014 -3.18055e-015
rhumerus -31.4871 -3.6676 -60.3119
rradius 31.8705
rwrist -20.3752
rhand -25.2125 11.307
rfingers 7.12502
rthumb 1.3063 -18.6688
lclavicle 5.80451e-014 -3.18055e-015
lhumerus -31.7458 -33.1779 101.312
lradius 46.1324
lwrist -4.26996
lhand -11.3859 27.7102
lfingers 7.12502
lthumb 14.6487 57.1728
rfemur -36.5103 -1.93522 21.8115
rtibia 34.3197
rfoot -7.78226 -4.27005
rtoes 5.34078
lfemur -20.994 -0.248452 -10.5519
ltibia 36.4781
lfoot -17.6114 -11.9281
ltoes -11.8094
382
root 0.393627 17.8316 -3.46391 12.8116 17.5546 -2.88176
lowerback 14.8385 1.18369 2.87265
upperback 5.13497 2.33815 7.2567
thorax -3.06727 1.1607 5.65174
lowerneck -22.1613 -7.65359 -2.66578
upperneck 1.89718 -9.8275 4.74406
head 4.37301 -4.55856 0.925825
rclavicle 6.04305e-014 9.54166e-015
rhumerus -31.7117 -4.34108 -60.411
rradius 33.0478
rwrist -20.8668
rhand -25.2153 11.0464
rfingers 7.12502
rthumb 1.30367 -18.9294
lclavicle 6.04305e-014 9.54166e-015
lhumerus -31.0462 -31.9209 100.758
lradius 45.4656
lwrist -4.05346
lhand -12.3505 25.7278
lfingers 7.12502
lthumb 13.7193 55.2555
rfemur -36.204 -1.68748 21.6651
rtibia 34.2518
rfoot -7.93576 -4.18189
rtoes 6.79382
lfemur -20.4982 0.0434933 -10.7725
ltibia 36.4004
lfoot -18.1129 -11.5738
ltoes -12.9455
383
root 0.436462 17.8263 -3.48531 12.4755 17.2098 -3.03349
lowerback 14.3611 1.10993 2.80685
upperback 5.03409 2.19939 7.1878
thorax -2.90571 1.09171 5.64247
lowerneck -22.5826 -7.51115 -2.60619
upperneck 2.41557 -9.6616 4.70695
head 4.58811 -4.46093 0.900104
rclavicle 1.66979e-014 -2.54444e-014
rhumerus -32.0207 -4.94873 -60.5644
rradius 34.3713
rwrist -21.462
rhand -24.8027 10.5573
rfingers 7.12502
rthumb 1.70211 -19.4157
lclavicle 1.66979e-014 -2.54444e-014
lhumerus -30.2273 -30.253 99.8523
lradius 44.916
lwrist -5.49737
lhand -10.5982 25.5981
lfingers 7.12502
lthumb 15.4076 55.0039
rfemur -35.8773 -1.55104 21.6395
rtibia 34.151
rfoot -7.69117 -4.05506
rtoes 8.1784
lfemur -20.0344 0.413197 -10.9312
ltibia 36.3169
lfoot -18.546 -11.2117
ltoes -13.8582
384
root 0.48042 17.8235 -3.50797 12.1494 16.8852 -3.34546
lowerback 13.8637 1.00135 2.93691
upperback 4.92809 2.04347 7.18551
thorax -2.73202 1.01469 5.59494
lowerneck -22.8852 -7.4047 -2.6264
upperneck 2.80941 -9.53098 4.78045
head 4.75834 -4.37824 0.923629
rclavicle 3.97569e-014 -3.02153e-014
rhumerus -32.2382 -5.52191 -60.6665
rradius 35.6901
rwrist -21.7974
rhand -24.4118 9.9633
rfingers 7.12502
rthumb 2.07961 -20.0063
lclavicle 3.97569e-014 -3.02153e-014
lhumerus -29.3582 -28.318 98.9626
lradius 44.2936
lwrist -6.98021
lhand -8.15727 26.103
lfingers 7.12502
lthumb 17.7575 55.3122
rfemur -35.6129 -1.46815 21.8075
rtibia 34.0396
rfoot -7.85849 -3.81236
rtoes 8.23673
lfemur -19.6301 0.62706 -10.8979
ltibia 36.2288
lfoot -18.7203 -10.8715
ltoes -13.1933
385
root 0.525412 17.8219 -3.53277 12.0983 16.5637 -3.5452
lowerback 13.1929 0.906515 2.99738
upperback 4.72954 1.88762 7.15205
thorax -2.56304 0.937871 5.55255
lowerneck -23.2122 -7.31141 -2.696
upperneck 3.20861 -9.39472 4.76262
head 4.93066 -4.29979 0.926889
rclavicle -6.59965e-014 -3.33958e-014
rhumerus -32.4876 -6.07249 -60.8007
rradius 36.9205
rwrist -21.7219
rhand -24.2958 9.4858
rfingers 7.12502
rthumb 2.19169 -20.4827
lclavicle -6.59965e-014 -3.33958e-014
lhumerus -28.601 -26.5237 98.2306
lradius 43.5309
lwrist -7.6501
lhand -6.6895 26.2549
lfingers 7.12502
lthumb 19.1694 55.3302
rfemur -35.6324 -1.31604 21.8236
rtibia 33.9408
rfoot -7.75054 -3.65909
rtoes 7.23466
lfemur -19.4961 0.699539 -10.97
ltibia 36.1234
lfoot -18.8668 -10.5472
ltoes -11.7034
386
root 0.570338 17.8173 -3.56042 12.2021 16.2601 -3.56493
lowerback 12.4548 0.84248 2.86928
upperback 4.45806 1.7482 7.08455
thorax -2.43884 0.868895 5.57712
lowerneck -23.4859 -7.20945 -2.69849
upperneck 3.70522 -9.27304 4.75716
head 5.12539 -4.22572 0.922412
rclavicle 4.45278e-014 -3.81667e-014
rhumerus -32.8042 -6.55762 -60.9347
rradius 38.0179
rwrist -21.5044
rhand -23.7527 9.13584
rfingers 7.12502
rthumb 2.71617 -20.8266
lclavicle 4.45278e-014 -3.81667e-014
lhumerus -28.0472 -24.8997 97.6363
lradius 42.913
lwrist -8.16293
lhand -5.52403 26.8331
lfingers 7.12502
lthumb 20.2899 55.7933
rfemur -35.7954 -1.15268 21.6352
rtibia 33.8714
rfoot -7.66502 -3.57947
rtoes 7.00635
lfemur -19.4676 0.74995 -11.231
ltibia 35.9754
lfoot -19.1025 -10.1983
ltoes -10.6104
387
root 0.615438 17.8082 -3.58763 12.1817 15.9668 -3.55228
lowerback 11.8236 0.786676 2.67162
upperback 4.24027 1.61899 7.04678
thorax -2.31771 0.80449 5.67034
lowerneck -23.6333 -7.09015 -2.66328
upperneck 4.03573 -9.12484 4.66146
head 5.24139 -4.15078 0.894202
rclavicle -3.97569e-015 -6.04305e-014
rhumerus -33.0792 -7.06171 -61.006
rradius 39.0347
rwrist -21.1048
rhand -22.6694 8.78013
rfingers 7.12502
rthumb 3.76239 -21.1664
lclavicle -3.97569e-015 -6.04305e-014
lhumerus -27.4735 -23.1782 97.1013
lradius 42.2975
lwrist -8.58353
lhand -4.42765 27.6823
lfingers 7.12502
lthumb 21.3432 56.5269
rfemur -35.8391 -1.11561 21.4477
rtibia 33.8489
rfoot -7.6752 -3.37666
rtoes 7.82218
lfemur -19.2559 0.926148 -11.5553
ltibia 35.7705
lfoot -19.3639 -9.80861
ltoes -9.85364
388
root 0.657642 17.7996 -3.61166 11.9763 15.6735 -3.57977
lowerback 11.4002 0.718797 2.54026
upperback 4.07895 1.49293 6.98974
thorax -2.24711 0.741654 5.70264
lowerneck -23.823 -6.98471 -2.62569
upperneck 4.37198 -8.99667 4.58384
head 5.36736 -4.08357 0.868021
rclavicle 1.98785e-014 -1.11319e-014
rhumerus -33.3001 -7.44238 -61.171
rradius 39.9996
rwrist -20.686
rhand -21.6238 8.40568
rfingers 7.12502
rthumb 4.77201 -21.5206
lclavicle 1.98785e-014 -1.11319e-014
lhumerus -26.8452 -21.5174 96.4894
lradius 41.6005
lwrist -8.78076
lhand -3.53475 28.3744
lfingers 7.12502
lthumb 22.2007 57.1195
rfemur -35.6924 -1.08549 21.3138
rtibia 33.8636
rfoot -7.62326 -3.19523
rtoes 7.58635
lfemur -18.8482 1.20168 -11.8614
ltibia 35.5173
lfoot -19.7737 -9.19921
ltoes -10.5722
389
root 0.696962 17.7912 -3.63632 11.6644 15.3364 -3.66854
lowerback 11.1765 0.651766 2.49387
upperback 3.89849 1.39192 6.90976
thorax -2.30464 0.692075 5.65701
lowerneck -23.9441 -6.88669 -2.51984
upperneck 4.71636 -8.8965 4.47137
head 5.48259 -4.03274 0.818994
rclavicle -1.51076e-014 -2.8625e-014
rhumerus -33.476 -7.62625 -61.4447
rradius 40.8147
rwrist -20.2454
rhand -20.7595 8.16739
rfingers 7.12502
rthumb 5.60652 -21.7384
lclavicle -1.51076e-014 -2.8625e-014
lhumerus -26.3704 -20.0564 95.8678
lradius 40.9608
lwrist -8.75642
lhand -2.89708 28.8352
lfingers 7.12502
lthumb 22.8127 57.5062
rfemur -35.4495 -0.926965 21.2194
rtibia 33.8823
rfoot -7.46285 -3.08859
rtoes 6.04492
lfemur -18.3163 1.38954 -12.0838
ltibia 35.2215
lfoot -20.2469 -8.43167
ltoes -11.889
390
root 0.737396 17.7825 -3.66447 11.2826 14.9972 -3.82647
lowerback 11.0378 0.598209 2.51134
upperback 3.71153 1.32356 6.86816
thorax -2.41757 0.659164 5.61151
lowerneck -23.8022 -6.79627 -2.41069
upperneck 4.88795 -8.80708 4.36827
head 5.50477 -3.9942 0.780994
rclavicle 1.66979e-014 -2.06736e-014
rhumerus -33.5843 -8.02319 -61.636
rradius 41.4786
rwrist -19.3806
rhand -19.949 7.93125
rfingers 7.12502
rthumb 6.38904 -21.9524
lclavicle 1.66979e-014 -2.06736e-014
lhumerus -26.0041 -18.6568 95.3441
lradius 40.3024
lwrist -8.5843
lhand -2.58792 29.0597
lfingers 7.12502
lthumb 23.1094 57.6938
rfemur -35.1425 -0.808292 21.2126
rtibia 33.8617
rfoot -7.41064 -2.91714
rtoes 5.10918
lfemur -17.692 1.3859 -12.1947
ltibia 34.9045
lfoot -20.6512 -7.81127
ltoes -11.7742
